<?xml version="1.0" standalone="no"?>
<!DOCTYPE svg PUBLIC "-//W3C//DTD SVG 20010904//EN"
 "http://www.w3.org/TR/2001/REC-SVG-20010904/DTD/svg10.dtd">
<svg version="1.0" xmlns="http://www.w3.org/2000/svg"
 width="700.000000pt" height="700.000000pt" viewBox="0 0 700.000000 700.000000"
 preserveAspectRatio="xMidYMid meet">
<metadata>
Created by potrace 1.14, written by Peter Selinger 2001-2017
</metadata>
<g transform="translate(0.000000,700.000000) scale(0.100000,-0.100000)"
fill="#000000" stroke="none">
<path d="M3209 6996 c-2 -2 -40 -6 -84 -10 -412 -30 -849 -153 -1243 -350 -63
-31 -82 -41 -192 -104 -113 -64 -430 -286 -460 -321 -3 -3 -41 -37 -84 -76
-449 -395 -796 -928 -979 -1500 -40 -124 -67 -218 -74 -255 -2 -14 -8 -41 -13
-60 -10 -41 -38 -199 -46 -262 -2 -24 -7 -52 -9 -63 -13 -64 -20 -235 -20
-490 0 -307 5 -398 30 -572 25 -166 29 -188 61 -318 14 -55 27 -109 29 -121 5
-22 61 -198 72 -224 3 -8 7 -19 9 -25 16 -66 191 -441 255 -546 235 -387 491
-684 814 -944 113 -91 128 -101 268 -194 283 -188 593 -330 927 -427 47 -14
96 -27 110 -30 14 -3 50 -11 80 -19 30 -7 82 -19 115 -24 33 -6 71 -13 84 -16
13 -2 49 -7 80 -11 31 -3 65 -8 76 -10 100 -19 676 -27 860 -12 118 10 267 32
391 58 55 11 110 22 121 25 80 15 390 114 441 141 15 7 33 14 40 14 7 0 20 4
30 9 9 6 91 46 182 90 174 84 231 116 345 189 69 44 235 161 245 172 3 3 28
23 55 44 513 405 928 1015 1121 1651 22 71 71 254 79 295 25 124 40 224 50
323 4 32 9 68 12 80 9 37 11 656 2 747 -13 145 -26 250 -34 280 -2 8 -7 35
-10 60 -3 25 -15 82 -26 128 -10 46 -21 97 -24 114 -3 17 -11 40 -17 52 -6 11
-11 23 -10 26 9 32 -115 365 -208 558 -406 842 -1133 1476 -2025 1766 -102 33
-272 79 -334 91 -118 22 -263 46 -314 51 -34 3 -73 8 -87 11 -27 6 -685 14
-691 9z"/>
</g>
</svg>
